<svg width="131" height="131" viewBox="0 0 131 131" fill="none" xmlns="http://www.w3.org/2000/svg"><path d="M65.7 124a58.596 58.596 0 0 1-54.282-36.035A58.6 58.6 0 1 1 124.1 65.4 58.51 58.51 0 0 1 65.7 124z" fill="#fff"/><path d="M65.7 13.7a51.7 51.7 0 1 1-51.5 51.7 51.53 51.53 0 0 1 51.5-51.7zm0-13.7a65.45 65.45 0 1 0 65.2 65.5 65.22 65.22 0 0 0-18.993-46.294A65.211 65.211 0 0 0 65.7 0z" fill="#472D30"/><path d="M65.7 130.8c36.009 0 65.2-29.28 65.2-65.4C130.9 29.281 101.709 0 65.7 0S.5 29.281.5 65.4c0 36.12 29.191 65.4 65.2 65.4z" fill="#006"/><path d="M9.9 65.1h112.5l-4.5 33-16.5 12.9-32 12.8-39.3-11-17.4-20.2-2.8-27.5z" fill="#360"/><path d="M121.5 83.4S95 88 86.7 83.4C78.4 78.8 68.4 65 68.4 65h-5.5S52.8 78.8 44.6 83.4c-8.2 4.6-34.8 0-34.8 0l11 13.8L52 124.7l12.8 1.8 32-11 24.7-32.1z" fill="#099"/><path d="M65.7 13.7a51.7 51.7 0 1 1-51.5 51.7 51.53 51.53 0 0 1 51.5-51.7zm0-13.7a65.45 65.45 0 1 0 65.2 65.5 65.22 65.22 0 0 0-18.993-46.294A65.211 65.211 0 0 0 65.7 0z" fill="#fff"/><path d="M65.7 32.1a33 33 0 0 0-32.9 33h65.9a33 33 0 0 0-33-33z" fill="#FFC"/></svg>