<svg xmlns="http://www.w3.org/2000/svg" width="142.66" height="142.66" viewBox="0 0 142.66 142.66"><defs><style>.cls-1{fill:#fff}.cls-2{fill:#472d30}.cls-3{fill:#ffe1a8}.cls-4{fill:#c9cba3}.cls-5{fill:#29abe2}.cls-6{fill:#f7931e}</style></defs><title>Icon</title><g id="Layer_2" data-name="Layer 2"><g id="Layer_2-2" data-name="Layer 2"><path class="cls-1" d="M71.33 135.16a63.83 63.83 0 1 1 63.83-63.83 63.9 63.9 0 0 1-63.83 63.83z"/><path class="cls-2" d="M71.33 15A56.33 56.33 0 1 1 15 71.33 56.39 56.39 0 0 1 71.33 15m0-15a71.33 71.33 0 1 0 71.33 71.33A71.33 71.33 0 0 0 71.33 0z"/><circle class="cls-3" cx="71.33" cy="71.33" r="71.33"/><path class="cls-4" d="M10.33 71h123l-5 36-18 14-35 14-43-12-19-22-3-30z"/><path class="cls-5" d="M132.33 91s-29 5-38 0-20-20-20-20h-6s-11 15-20 20-38 0-38 0l12 15 34 30 14 2 35-12z"/><path class="cls-2" d="M71.33 15A56.33 56.33 0 1 1 15 71.33 56.39 56.39 0 0 1 71.33 15m0-15a71.33 71.33 0 1 0 71.33 71.33A71.33 71.33 0 0 0 71.33 0z"/><path class="cls-6" d="M71.33 35a36 36 0 0 0-36 36h72a36 36 0 0 0-36-36z"/></g></g></svg>