<svg width="539" height="381" viewBox="0 0 539 381" fill="none" xmlns="http://www.w3.org/2000/svg"><path d="M538.5.5H.5v380h538V.5z" fill="#fff" stroke="#fff" stroke-miterlimit="10"/><path d="M91.9 246.8a60.399 60.399 0 1 1 23.114-116.202A60.395 60.395 0 0 1 152.3 186.4a60.342 60.342 0 0 1-17.676 42.724A60.35 60.35 0 0 1 91.9 246.8z" fill="#fff"/><path d="M91.9 133.1a53.297 53.297 0 0 1 49.243 32.903 53.305 53.305 0 0 1-11.554 58.086 53.306 53.306 0 0 1-58.086 11.554A53.3 53.3 0 0 1 38.6 186.4a53.35 53.35 0 0 1 53.3-53.3zm0-14.2a67.5 67.5 0 1 0 67.5 67.5 67.466 67.466 0 0 0-41.664-62.37A67.466 67.466 0 0 0 91.9 118.9z" fill="#472D30"/><path d="M91.9 253.9c37.279 0 67.5-30.221 67.5-67.5 0-37.279-30.221-67.5-67.5-67.5-37.28 0-67.5 30.221-67.5 67.5 0 37.279 30.22 67.5 67.5 67.5z" fill="#FFE1A8"/><path d="M209.816 158.45h-18.165v50.38h-7.413v-50.38h-18.126v-6.132h43.704v6.132zm25.698 50.38c-.517-1.009-.892-2.264-1.125-3.765-2.717 3.028-6.249 4.541-10.596 4.541-4.115 0-7.53-1.19-10.247-3.571-2.691-2.38-4.037-5.382-4.037-9.004 0-4.451 1.643-7.866 4.93-10.247 3.312-2.381 8.086-3.584 14.322-3.61h5.162v-2.406c0-1.941-.505-3.493-1.514-4.658-.983-1.164-2.548-1.746-4.696-1.746-1.889 0-3.377.452-4.464 1.358-1.061.906-1.591 2.148-1.591 3.726h-11.217c0-2.432.75-4.683 2.251-6.753 1.501-2.07 3.623-3.688 6.365-4.852 2.743-1.19 5.822-1.785 9.238-1.785 5.175 0 9.276 1.306 12.304 3.92 3.053 2.587 4.58 6.236 4.58 10.945v18.204c.026 3.984.582 6.999 1.669 9.043v.66h-11.334zm-9.276-7.801c1.656 0 3.183-.363 4.58-1.087 1.397-.751 2.432-1.747 3.105-2.989v-7.219h-4.192c-5.615 0-8.604 1.94-8.966 5.822l-.039.66c0 1.397.492 2.548 1.475 3.454.984.906 2.329 1.359 4.037 1.359zm50.302-3.804c0-1.372-.686-2.445-2.057-3.222-1.345-.802-3.519-1.513-6.521-2.134-9.988-2.096-14.982-6.34-14.982-12.731 0-3.726 1.54-6.831 4.619-9.316 3.105-2.509 7.155-3.764 12.149-3.764 5.33 0 9.587 1.255 12.769 3.764 3.209 2.51 4.813 5.771 4.813 9.781h-11.217c0-1.604-.517-2.923-1.552-3.959-1.035-1.06-2.653-1.591-4.852-1.591-1.889 0-3.351.427-4.386 1.281-1.035.854-1.552 1.941-1.552 3.26 0 1.242.582 2.252 1.746 3.028 1.19.75 3.183 1.41 5.977 1.979 2.795.544 5.15 1.165 7.064 1.863 5.926 2.174 8.889 5.939 8.889 11.295 0 3.83-1.643 6.935-4.93 9.315-3.286 2.355-7.529 3.532-12.73 3.532-3.519 0-6.65-.621-9.393-1.863-2.717-1.268-4.852-2.988-6.404-5.162-1.553-2.199-2.329-4.567-2.329-7.103h10.635c.103 1.993.841 3.519 2.212 4.58 1.371 1.061 3.209 1.592 5.512 1.592 2.147 0 3.764-.402 4.851-1.204 1.113-.828 1.669-1.902 1.669-3.221zm33.419-5.24l-4.037 4.037v12.808h-11.217v-59.617h11.217v33.03l2.174-2.795 10.751-12.614h13.468l-15.176 17.505 16.496 24.491h-12.886l-10.79-16.845zm48.866-3.843h-9.277v20.688h-11.644v-56.512h20.998c6.676 0 11.826 1.487 15.448 4.463 3.623 2.976 5.434 7.181 5.434 12.615 0 3.855-.841 7.077-2.523 9.664-1.656 2.562-4.179 4.606-7.568 6.133l12.226 23.094v.543h-12.498l-10.596-20.688zm-9.277-9.431h9.393c2.924 0 5.188-.738 6.793-2.213 1.604-1.5 2.406-3.558 2.406-6.171 0-2.665-.763-4.761-2.29-6.288-1.501-1.526-3.817-2.29-6.948-2.29h-9.354v16.962zm50.225 30.119h-11.256v-41.996h11.256v41.996zm-11.916-52.864c0-1.682.557-3.066 1.669-4.153 1.139-1.087 2.678-1.63 4.619-1.63 1.915 0 3.441.543 4.58 1.63 1.139 1.087 1.708 2.471 1.708 4.153 0 1.708-.582 3.105-1.747 4.192-1.138 1.087-2.652 1.63-4.541 1.63-1.889 0-3.416-.543-4.58-1.63-1.139-1.087-1.708-2.484-1.708-4.192zm36.791 39.163l7.801-28.295h11.722l-14.167 41.996h-10.713l-14.166-41.996h11.721l7.802 28.295zm43.279 14.477c-6.158 0-11.178-1.889-15.059-5.666-3.856-3.778-5.783-8.811-5.783-15.099v-1.087c0-4.217.815-7.982 2.445-11.294 1.63-3.338 3.933-5.9 6.909-7.685 3.001-1.812 6.417-2.717 10.246-2.717 5.745 0 10.26 1.811 13.546 5.433 3.312 3.623 4.968 8.759 4.968 15.409v4.58h-26.742c.362 2.743 1.449 4.943 3.26 6.599 1.837 1.656 4.153 2.484 6.948 2.484 4.321 0 7.698-1.566 10.13-4.697l5.512 6.172c-1.682 2.38-3.959 4.243-6.831 5.589-2.873 1.319-6.055 1.979-9.549 1.979zm-1.28-34.466c-2.226 0-4.037.75-5.434 2.251-1.372 1.501-2.251 3.649-2.64 6.443h15.603v-.893c-.051-2.484-.724-4.398-2.018-5.744-1.294-1.371-3.131-2.057-5.511-2.057zm48.555 2.212c-1.526-.207-2.872-.31-4.036-.31-4.244 0-7.026 1.436-8.345 4.308v27.48h-11.217v-41.996H502.2l.31 5.007c2.251-3.856 5.369-5.783 9.354-5.783 1.242 0 2.407.168 3.493.504l-.155 10.79z" fill="#472D30"/><path d="M34.2 186h116.4l-4.8 34.1-17 13.3-33.1 13.2L55 235.3l-18-20.9-2.8-28.4z" fill="#C9CBA3"/><path d="M149.6 205s-27.4 4.7-36 0c-8.6-4.7-18.9-18.9-18.9-18.9H89S78.6 200.3 70.1 205c-8.5 4.7-36 0-36 0l11.4 14.2 32.2 28.4 13.2 1.9 33.1-11.4 25.6-33.1z" fill="#29ABE2"/><path d="M91.9 133.1a53.297 53.297 0 0 1 49.243 32.903 53.305 53.305 0 0 1-11.554 58.086 53.306 53.306 0 0 1-58.086 11.554A53.3 53.3 0 0 1 38.6 186.4a53.35 53.35 0 0 1 53.3-53.3zm0-14.2a67.5 67.5 0 1 0 67.5 67.5 67.466 67.466 0 0 0-41.664-62.37A67.466 67.466 0 0 0 91.9 118.9z" fill="#472D30"/><path d="M91.9 152a34.14 34.14 0 0 0-34.1 34.1h68.1a33.948 33.948 0 0 0-2.54-13.053A33.92 33.92 0 0 0 91.9 152z" fill="#F7931E"/></svg>