<svg xmlns="http://www.w3.org/2000/svg" width="538" height="380" viewBox="0 0 538 380"><defs><style>.cls-1{fill:#304057}.cls-2{fill:#fff}.cls-3{fill:#472d30}.cls-4{fill:#006}.cls-5{isolation:isolate}.cls-6{fill:#360}.cls-7{fill:#099}.cls-8{fill:#ffc}</style></defs><title>Asset 2</title><g id="Layer_2" data-name="Layer 2"><g id="Layer_1-2" data-name="Layer 1"><path class="cls-1" d="M0 0h538v380H0z"/><g id="Layer_2-2" data-name="Layer 2"><g id="Layer_1-2-2" data-name="Layer 1-2"><path class="cls-2" d="M96.5 248.6a58.6 58.6 0 1 1 58.4-58.6 58.51 58.51 0 0 1-58.4 58.6z"/><path class="cls-3" d="M96.5 138.3A51.7 51.7 0 1 1 45 190a51.53 51.53 0 0 1 51.5-51.7m0-13.7a65.45 65.45 0 1 0 65.2 65.5 65.21 65.21 0 0 0-65.2-65.5z"/><ellipse class="cls-4" cx="96.5" cy="190" rx="65.2" ry="65.4"/><g class="cls-5"><path class="cls-2" d="M212.42 171.46h-16.73v45.65h-11.25v-45.65h-16.51v-9.15h44.5z"/></g><g class="cls-5"><path class="cls-2" d="M235.35 217.11a12.1 12.1 0 0 1-1.09-3.65 13.1 13.1 0 0 1-10.24 4.4 14.38 14.38 0 0 1-9.89-3.46 11.15 11.15 0 0 1-3.92-8.73 11.52 11.52 0 0 1 4.78-9.94q4.78-3.46 13.83-3.5h5v-2.33a6.73 6.73 0 0 0-1.44-4.52 5.67 5.67 0 0 0-4.56-1.69 6.45 6.45 0 0 0-4.3 1.32 4.48 4.48 0 0 0-1.56 3.61h-10.85a11 11 0 0 1 2.18-6.55 14.38 14.38 0 0 1 6.15-4.72 22.36 22.36 0 0 1 8.93-1.71q7.5 0 11.91 3.78t4.41 10.63v17.65q0 5.8 1.61 8.77v.64zm-9-7.56a9.31 9.31 0 0 0 4.43-1.07 7 7 0 0 0 3-2.88v-7h-4.05q-8.14 0-8.67 5.65v.64a4.36 4.36 0 0 0 1.43 3.35 5.53 5.53 0 0 0 3.89 1.31zm48.65-3.69a3.5 3.5 0 0 0-2-3.14 22.32 22.32 0 0 0-6.32-2.05q-14.48-3-14.48-12.34a11.2 11.2 0 0 1 4.48-9.05q4.48-3.63 11.72-3.63 7.73 0 12.36 3.65a11.52 11.52 0 0 1 4.63 9.48h-10.8a5.27 5.27 0 0 0-1.5-3.86 6.34 6.34 0 0 0-4.69-1.52 6.47 6.47 0 0 0-4.24 1.24 3.92 3.92 0 0 0-1.5 3.16 3.35 3.35 0 0 0 1.71 2.92 17.5 17.5 0 0 0 5.76 1.92 47.09 47.09 0 0 1 6.83 1.83q8.59 3.16 8.59 11a10.64 10.64 0 0 1-4.76 9q-4.77 3.44-12.31 3.44a21.41 21.41 0 0 1-9.06-1.83 15.2 15.2 0 0 1-6.21-5 11.66 11.66 0 0 1-2.25-6.87h10.28a5.68 5.68 0 0 0 2.14 4.44 8.46 8.46 0 0 0 5.33 1.54 7.84 7.84 0 0 0 4.71-1.19 3.7 3.7 0 0 0 1.58-3.14zm32.27-5.08l-3.9 3.91v12.42h-10.84v-57.8h10.84v32l2.1-2.71 10.39-12.23h13l-14.67 17 15.95 23.75H317.7zm47.24-3.73h-9v20.06h-11.22v-54.8h20.3q9.68 0 14.93 4.33t5.25 12.23a16.9 16.9 0 0 1-2.42 9.35 16.51 16.51 0 0 1-7.33 6l11.82 22.39v.53h-12.09zm-9-9.15h9.08a9.27 9.27 0 0 0 6.57-2.16 7.75 7.75 0 0 0 2.33-6 8.3 8.3 0 0 0-2.19-6.1q-2.2-2.22-6.73-2.22h-9zm37.02-22.04a5.36 5.36 0 0 1 1.63-4 7 7 0 0 1 8.87 0 5.76 5.76 0 0 1 0 8.09 6.94 6.94 0 0 1-8.82 0 5.35 5.35 0 0 1-1.68-4.09zm11.52 51.26h-10.88v-40.73h10.88z"/></g><g class="cls-5"><path class="cls-2" d="M418.17 203.83l7.54-27.44H437l-13.69 40.72H413l-13.7-40.72h11.33z"/></g><g class="cls-5"><path class="cls-2" d="M460 217.87q-8.93 0-14.54-5.5t-5.61-14.64v-1.05a24.68 24.68 0 0 1 2.36-11 17.39 17.39 0 0 1 6.7-7.45 18.76 18.76 0 0 1 9.89-2.62q8.33 0 13.11 5.27t4.78 14.94v4.44h-25.84a10.11 10.11 0 0 0 3.17 6.4 9.57 9.57 0 0 0 6.7 2.41 11.69 11.69 0 0 0 9.79-4.55l5.33 6a16.28 16.28 0 0 1-6.6 5.4 21.61 21.61 0 0 1-9.24 1.95zm-1.24-33.46a6.76 6.76 0 0 0-5.23 2.19 11.37 11.37 0 0 0-2.57 6.27H466V192a8.11 8.11 0 0 0-2-5.61 7 7 0 0 0-5.23-1.98zm46.9 2.18a29.39 29.39 0 0 0-3.9-.3q-6.15 0-8.07 4.18v26.65h-10.84v-40.73h10.24l.3 4.85q3.26-5.61 9-5.61a11.32 11.32 0 0 1 3.38.49z"/></g><path class="cls-6" d="M40.7 189.7h112.5l-4.5 33-16.5 12.9-32 12.8-39.3-11-17.4-20.2-2.8-27.5z"/><path class="cls-7" d="M152.3 208s-26.5 4.6-34.8 0-18.3-18.4-18.3-18.4h-5.5S83.6 203.4 75.4 208s-34.8 0-34.8 0l11 13.8 31.2 27.5 12.8 1.8 32-11z"/><path class="cls-2" d="M96.5 138.3A51.7 51.7 0 1 1 45 190a51.53 51.53 0 0 1 51.5-51.7m0-13.7a65.45 65.45 0 1 0 65.2 65.5 65.21 65.21 0 0 0-65.2-65.5z"/><path class="cls-8" d="M96.5 156.7a33 33 0 0 0-32.9 33h65.9a33 33 0 0 0-33-33z"/></g></g></g></g></svg>