<svg width="131" height="131" viewBox="0 0 131 131" fill="none" xmlns="http://www.w3.org/2000/svg">
<path d="M65.7 124C54.1016 124.04 42.7523 120.637 33.0893 114.222C23.4263 107.807 15.8843 98.6689 11.4183 87.9647C6.9523 77.2605 5.76325 65.4717 8.00171 54.0913C10.2402 42.7108 15.8054 32.2506 23.9928 24.0353C32.1801 15.8199 42.6212 10.2189 53.994 7.94153C65.3667 5.66418 77.1594 6.81291 87.8788 11.2423C98.5982 15.6716 107.762 23.1824 114.21 32.8234C120.658 42.4644 124.1 53.802 124.1 65.4005C124.124 80.9148 117.985 95.8036 107.034 106.793C96.082 117.782 81.2144 123.971 65.7 124V124Z" fill="white"/>
<path d="M65.7 13.7005C75.9337 13.6609 85.949 16.6594 94.4773 22.3161C103.006 27.9729 109.663 36.0334 113.607 45.4768C117.551 54.9202 118.603 65.3215 116.631 75.3635C114.659 85.4055 109.751 94.6362 102.528 101.887C95.3059 109.137 86.0942 114.081 76.06 116.092C66.0257 118.103 55.6203 117.091 46.1618 113.184C36.7032 109.277 28.6169 102.65 22.9271 94.1441C17.2374 85.6378 14.2001 75.6343 14.2 65.4005C14.1776 58.6217 15.493 51.9051 18.0707 45.6355C20.6485 39.3659 24.4379 33.6666 29.222 28.8639C34.006 24.0613 39.6907 20.2498 45.9502 17.6478C52.2098 15.0458 58.9212 13.7044 65.7 13.7005V13.7005ZM65.7 0.000477605C52.7468 -0.0489963 40.0702 3.74622 29.2753 10.9056C18.4803 18.065 10.0525 28.2665 5.05898 40.2186C0.0654039 52.1707 -1.26936 65.3357 1.22369 78.0468C3.71674 90.7579 9.92548 102.443 19.0638 111.624C28.2021 120.804 39.859 127.066 52.5585 129.618C65.258 132.169 78.4291 130.895 90.4039 125.956C102.379 121.018 112.619 112.637 119.828 101.875C127.037 91.1128 130.89 78.4538 130.9 65.5005V65.5005C130.938 56.9135 129.28 48.4034 126.021 40.4589C122.761 32.5144 117.965 25.2919 111.907 19.206C105.849 13.1201 98.6483 8.29058 90.7189 4.99476C82.7894 1.69895 74.2871 0.00170953 65.7 0.000477605V0.000477605Z" fill="#472D30"/>
<path d="M65.7 130.8C101.709 130.8 130.9 101.52 130.9 65.4005C130.9 29.2811 101.709 0.000480652 65.7 0.000480652C29.691 0.000480652 0.500011 29.2811 0.500011 65.4005C0.500011 101.52 29.691 130.8 65.7 130.8Z" fill="#000066"/>
<path d="M9.90001 65.1005H122.4L117.9 98.1005L101.4 111L69.4 123.8L30.1 112.8L12.7 92.6005L9.90001 65.1005Z" fill="#336600"/>
<path d="M121.5 83.4005C121.5 83.4005 95 88.0005 86.7 83.4005C78.4 78.8005 68.4 65.0005 68.4 65.0005H62.9C62.9 65.0005 52.8 78.8005 44.6 83.4005C36.4 88.0005 9.80001 83.4005 9.80001 83.4005L20.8 97.2005L52 124.7L64.8 126.5L96.8 115.5L121.5 83.4005Z" fill="#009999"/>
<path d="M65.7 13.7005C75.9337 13.6609 85.949 16.6594 94.4773 22.3161C103.006 27.9729 109.663 36.0334 113.607 45.4768C117.551 54.9202 118.603 65.3215 116.631 75.3635C114.659 85.4055 109.751 94.6362 102.528 101.887C95.3059 109.137 86.0942 114.081 76.06 116.092C66.0257 118.103 55.6203 117.091 46.1618 113.184C36.7032 109.277 28.6169 102.65 22.9271 94.1441C17.2374 85.6378 14.2001 75.6343 14.2 65.4005C14.1776 58.6217 15.493 51.9051 18.0707 45.6355C20.6485 39.3659 24.4379 33.6666 29.222 28.8639C34.006 24.0613 39.6907 20.2498 45.9502 17.6478C52.2098 15.0458 58.9212 13.7044 65.7 13.7005V13.7005ZM65.7 0.000477605C52.7468 -0.0489963 40.0702 3.74622 29.2753 10.9056C18.4803 18.065 10.0525 28.2665 5.05898 40.2186C0.0654039 52.1707 -1.26936 65.3357 1.22369 78.0468C3.71674 90.7579 9.92548 102.443 19.0638 111.624C28.2021 120.804 39.859 127.066 52.5585 129.618C65.258 132.169 78.4291 130.895 90.4039 125.956C102.379 121.018 112.619 112.637 119.828 101.875C127.037 91.1128 130.89 78.4538 130.9 65.5005V65.5005C130.938 56.9135 129.28 48.4034 126.021 40.4589C122.761 32.5144 117.965 25.2919 111.907 19.206C105.849 13.1201 98.6483 8.29058 90.7189 4.99476C82.7894 1.69895 74.2871 0.00170953 65.7 0.000477605V0.000477605Z" fill="white"/>
<path d="M65.7 32.1005C56.9652 32.1269 48.5972 35.6154 42.4301 41.8012C36.263 47.9871 32.8 56.3656 32.8 65.1005H98.7C98.7 56.3483 95.2232 47.9547 89.0345 41.766C82.8458 35.5773 74.4522 32.1005 65.7 32.1005V32.1005Z" fill="#FFFFCC"/>
</svg>
