<svg width="539" height="381" viewBox="0 0 539 381" fill="none" xmlns="http://www.w3.org/2000/svg">
<path d="M538.5 0.5H0.5V380.5H538.5V0.5Z" fill="white" stroke="white" stroke-miterlimit="10"/>
<path d="M91.9 246.8C79.954 246.8 68.2763 243.258 58.3435 236.621C48.4108 229.984 40.6692 220.551 36.0976 209.514C31.5261 198.477 30.33 186.333 32.6605 174.617C34.9911 162.9 40.7436 152.138 49.1907 143.691C57.6378 135.244 68.4001 129.491 80.1165 127.161C91.833 124.83 103.977 126.026 115.014 130.598C126.051 135.169 135.484 142.911 142.121 152.844C148.758 162.776 152.3 174.454 152.3 186.4C152.307 194.334 150.749 202.191 147.716 209.522C144.683 216.853 140.234 223.514 134.624 229.124C129.014 234.734 122.353 239.183 115.022 242.216C107.691 245.249 99.8337 246.807 91.9 246.8V246.8Z" fill="white"/>
<path d="M91.9 133.1C102.442 133.1 112.747 136.226 121.512 142.083C130.277 147.939 137.109 156.264 141.143 166.003C145.177 175.742 146.232 186.459 144.176 196.798C142.119 207.137 137.043 216.635 129.589 224.089C122.135 231.543 112.637 236.619 102.298 238.676C91.9591 240.732 81.2423 239.677 71.503 235.643C61.7637 231.609 53.4393 224.777 47.5827 216.012C41.726 207.247 38.6 196.942 38.6 186.4C38.6132 172.268 44.233 158.719 54.2258 148.726C64.2186 138.733 77.768 133.113 91.9 133.1V133.1ZM91.9 118.9C78.5498 118.9 65.4993 122.859 54.399 130.276C43.2987 137.693 34.647 148.235 29.5381 160.569C24.4292 172.903 23.0925 186.475 25.697 199.569C28.3015 212.662 34.7302 224.69 44.1703 234.13C53.6103 243.57 65.6377 249.999 78.7314 252.603C91.8251 255.208 105.397 253.871 117.731 248.762C130.065 243.653 140.607 235.001 148.024 223.901C155.441 212.801 159.4 199.75 159.4 186.4V186.4C159.404 177.535 157.661 168.755 154.27 160.564C150.879 152.373 145.907 144.93 139.638 138.661C133.37 132.393 125.927 127.421 117.736 124.03C109.545 120.639 100.765 118.896 91.9 118.9V118.9Z" fill="#472D30"/>
<path d="M91.9 253.9C129.179 253.9 159.4 223.679 159.4 186.4C159.4 149.121 129.179 118.9 91.9 118.9C54.6208 118.9 24.4 149.121 24.4 186.4C24.4 223.679 54.6208 253.9 91.9 253.9Z" fill="#FFE1A8"/>
<path d="M209.816 158.45H191.651V208.83H184.238V158.45H166.112V152.318H209.816V158.45Z" fill="#472D30"/>
<path d="M235.514 208.83C234.997 207.821 234.622 206.566 234.389 205.065C231.672 208.093 228.14 209.606 223.793 209.606C219.678 209.606 216.263 208.416 213.546 206.035C210.855 203.655 209.509 200.653 209.509 197.031C209.509 192.58 211.152 189.165 214.439 186.784C217.751 184.403 222.525 183.2 228.761 183.174H233.923V180.768C233.923 178.827 233.418 177.275 232.409 176.11C231.426 174.946 229.861 174.364 227.713 174.364C225.824 174.364 224.336 174.816 223.249 175.722C222.188 176.628 221.658 177.87 221.658 179.448H210.441C210.441 177.016 211.191 174.765 212.692 172.695C214.193 170.625 216.315 169.007 219.057 167.843C221.8 166.653 224.879 166.058 228.295 166.058C233.47 166.058 237.571 167.364 240.599 169.978C243.652 172.565 245.179 176.214 245.179 180.923V199.127C245.205 203.111 245.761 206.126 246.848 208.17V208.83H235.514ZM226.238 201.029C227.894 201.029 229.421 200.666 230.818 199.942C232.215 199.191 233.25 198.195 233.923 196.953V189.734H229.731C224.116 189.734 221.127 191.674 220.765 195.556L220.726 196.216C220.726 197.613 221.218 198.764 222.201 199.67C223.185 200.576 224.53 201.029 226.238 201.029ZM276.54 197.225C276.54 195.853 275.854 194.78 274.483 194.003C273.138 193.201 270.964 192.49 267.962 191.869C257.974 189.773 252.98 185.529 252.98 179.138C252.98 175.412 254.52 172.307 257.599 169.822C260.704 167.313 264.754 166.058 269.748 166.058C275.078 166.058 279.335 167.313 282.517 169.822C285.726 172.332 287.33 175.593 287.33 179.603H276.113C276.113 177.999 275.596 176.68 274.561 175.644C273.526 174.584 271.908 174.053 269.709 174.053C267.82 174.053 266.358 174.48 265.323 175.334C264.288 176.188 263.771 177.275 263.771 178.594C263.771 179.836 264.353 180.846 265.517 181.622C266.707 182.372 268.7 183.032 271.494 183.601C274.289 184.145 276.644 184.766 278.558 185.464C284.484 187.638 287.447 191.403 287.447 196.759C287.447 200.589 285.804 203.694 282.517 206.074C279.231 208.429 274.988 209.606 269.787 209.606C266.268 209.606 263.137 208.985 260.394 207.743C257.677 206.475 255.542 204.755 253.99 202.581C252.437 200.382 251.661 198.014 251.661 195.478H262.296C262.399 197.471 263.137 198.997 264.508 200.058C265.879 201.119 267.717 201.65 270.02 201.65C272.167 201.65 273.784 201.248 274.871 200.446C275.984 199.618 276.54 198.544 276.54 197.225ZM309.959 191.985L305.922 196.022V208.83H294.705V149.213H305.922V182.243L308.096 179.448L318.847 166.834H332.315L317.139 184.339L333.635 208.83H320.749L309.959 191.985ZM358.825 188.142H349.548V208.83H337.904V152.318H358.902C365.578 152.318 370.728 153.805 374.35 156.781C377.973 159.757 379.784 163.962 379.784 169.396C379.784 173.251 378.943 176.473 377.261 179.06C375.605 181.622 373.082 183.666 369.693 185.193L381.919 208.287V208.83H369.421L358.825 188.142ZM349.548 178.711H358.941C361.865 178.711 364.129 177.973 365.734 176.498C367.338 174.998 368.14 172.94 368.14 170.327C368.14 167.662 367.377 165.566 365.85 164.039C364.349 162.513 362.033 161.749 358.902 161.749H349.548V178.711ZM399.773 208.83H388.517V166.834H399.773V208.83ZM387.857 155.966C387.857 154.284 388.414 152.9 389.526 151.813C390.665 150.726 392.204 150.183 394.145 150.183C396.06 150.183 397.586 150.726 398.725 151.813C399.864 152.9 400.433 154.284 400.433 155.966C400.433 157.674 399.851 159.071 398.686 160.158C397.548 161.245 396.034 161.788 394.145 161.788C392.256 161.788 390.729 161.245 389.565 160.158C388.426 159.071 387.857 157.674 387.857 155.966Z" fill="#472D30"/>
<path d="M424.648 195.129L432.449 166.834H444.171L430.004 208.83H419.291L405.125 166.834H416.846L424.648 195.129Z" fill="#472D30"/>
<path d="M467.927 209.606C461.769 209.606 456.749 207.717 452.868 203.94C449.012 200.162 447.085 195.129 447.085 188.841V187.754C447.085 183.537 447.9 179.772 449.53 176.46C451.16 173.122 453.463 170.56 456.439 168.775C459.44 166.963 462.856 166.058 466.685 166.058C472.43 166.058 476.945 167.869 480.231 171.491C483.543 175.114 485.199 180.25 485.199 186.9V191.48H458.457C458.819 194.223 459.906 196.423 461.717 198.079C463.554 199.735 465.87 200.563 468.665 200.563C472.986 200.563 476.363 198.997 478.795 195.866L484.307 202.038C482.625 204.418 480.348 206.281 477.476 207.627C474.603 208.946 471.421 209.606 467.927 209.606ZM466.647 175.14C464.421 175.14 462.61 175.89 461.213 177.391C459.841 178.892 458.962 181.04 458.573 183.834H474.176V182.941C474.125 180.457 473.452 178.543 472.158 177.197C470.864 175.826 469.027 175.14 466.647 175.14ZM515.202 177.352C513.676 177.145 512.33 177.042 511.166 177.042C506.922 177.042 504.14 178.478 502.821 181.35V208.83H491.604V166.834H502.2L502.51 171.841C504.761 167.985 507.879 166.058 511.864 166.058C513.106 166.058 514.271 166.226 515.357 166.562L515.202 177.352Z" fill="#472D30"/>
<path d="M34.2 186H150.6L145.8 220.1L128.8 233.4L95.7 246.6L55 235.3L37 214.4L34.2 186Z" fill="#C9CBA3"/>
<path d="M149.6 205C149.6 205 122.2 209.7 113.6 205C105 200.3 94.7 186.1 94.7 186.1H89C89 186.1 78.6 200.3 70.1 205C61.6 209.7 34.1 205 34.1 205L45.5 219.2L77.7 247.6L90.9 249.5L124 238.1L149.6 205Z" fill="#29ABE2"/>
<path d="M91.9 133.1C102.442 133.1 112.747 136.226 121.512 142.083C130.277 147.939 137.109 156.264 141.143 166.003C145.177 175.742 146.232 186.459 144.176 196.798C142.119 207.137 137.043 216.635 129.589 224.089C122.135 231.543 112.637 236.619 102.298 238.676C91.9591 240.732 81.2423 239.677 71.503 235.643C61.7637 231.609 53.4393 224.777 47.5827 216.012C41.726 207.247 38.6 196.942 38.6 186.4C38.6132 172.268 44.233 158.719 54.2258 148.726C64.2186 138.733 77.768 133.113 91.9 133.1V133.1ZM91.9 118.9C78.5498 118.9 65.4993 122.859 54.399 130.276C43.2987 137.693 34.647 148.235 29.5381 160.569C24.4292 172.903 23.0925 186.475 25.697 199.569C28.3015 212.662 34.7302 224.69 44.1703 234.13C53.6103 243.57 65.6377 249.999 78.7314 252.603C91.8251 255.208 105.397 253.871 117.731 248.762C130.065 243.653 140.607 235.001 148.024 223.901C155.441 212.801 159.4 199.75 159.4 186.4V186.4C159.404 177.535 157.661 168.755 154.27 160.564C150.879 152.373 145.907 144.93 139.638 138.661C133.37 132.393 125.927 127.421 117.736 124.03C109.545 120.639 100.765 118.896 91.9 118.9V118.9Z" fill="#472D30"/>
<path d="M91.9 152C82.8594 152.011 74.192 155.607 67.7993 161.999C61.4066 168.392 57.8106 177.059 57.8 186.1H125.9C125.922 181.624 125.059 177.188 123.36 173.047C121.66 168.906 119.158 165.143 115.998 161.973C112.837 158.803 109.081 156.29 104.945 154.579C100.81 152.867 96.376 151.991 91.9 152Z" fill="#F7931E"/>
</svg>
